<svg width="36" height="36" viewBox="0 0 36 36" fill="none" xmlns="http://www.w3.org/2000/svg">
<path d="M12 4.5C7.8645 4.5 4.5 7.8645 4.5 12V24C4.5 28.1355 7.8645 31.5 12 31.5H24C28.1355 31.5 31.5 28.1355 31.5 24V12C31.5 7.8645 28.1355 4.5 24 4.5H12ZM12 7.5H24C26.481 7.5 28.5 9.519 28.5 12V24C28.5 26.481 26.481 28.5 24 28.5H12C9.519 28.5 7.5 26.481 7.5 24V12C7.5 9.519 9.519 7.5 12 7.5ZM25.5 9C24.6716 9 24 9.67158 24 10.5C24 11.3284 24.6716 12 25.5 12C26.3284 12 27 11.3284 27 10.5C27 9.67158 26.3284 9 25.5 9ZM18 10.5C13.8645 10.5 10.5 13.8645 10.5 18C10.5 22.1355 13.8645 25.5 18 25.5C22.1355 25.5 25.5 22.1355 25.5 18C25.5 13.8645 22.1355 10.5 18 10.5ZM18 13.5C20.481 13.5 22.5 15.519 22.5 18C22.5 20.481 20.481 22.5 18 22.5C15.519 22.5 13.5 20.481 13.5 18C13.5 15.519 15.519 13.5 18 13.5Z" fill="#E8CFCF"/>
</svg>
