<svg width="28" height="28" viewBox="0 0 28 28" fill="none" xmlns="http://www.w3.org/2000/svg">
<path d="M14.0178 0C6.30862 0 0.0328893 6.27034 0.0300891 13.9795C0.0286889 16.4437 0.674123 18.8494 1.89784 20.9692L0 28.0027L7.3261 26.2717C9.3689 27.3862 11.6685 27.9712 14.0096 27.9726H14.015C21.7228 27.9726 27.9958 21.7009 28 13.9932C28.0028 10.2562 26.5496 6.74269 23.909 4.09923C21.2683 1.45718 17.7589 0.00140014 14.0178 0ZM14.015 2.80027C17.0057 2.80167 19.8163 3.96771 21.9291 6.07911C24.0419 8.19332 25.2025 11.0025 25.1997 13.9904C25.1969 20.1566 20.1813 25.1724 14.0123 25.1724C12.1459 25.171 10.2972 24.7023 8.66882 23.8133L7.72536 23.2991L6.68347 23.5453L3.92695 24.1961L4.59967 21.6966L4.90322 20.5754L4.32348 19.5691C3.34619 17.8777 2.82896 15.9439 2.83036 13.9795C2.83316 7.81608 7.85024 2.80027 14.015 2.80027ZM9.06807 7.52573C8.83424 7.52573 8.45618 7.61324 8.13555 7.96327C7.81492 8.31191 6.91043 9.1563 6.91043 10.8757C6.91043 12.595 8.16289 14.257 8.33791 14.4909C8.51153 14.7233 10.7555 18.3631 14.3076 19.7633C17.2591 20.9268 17.8586 20.6971 18.4998 20.6383C19.1411 20.5809 20.5686 19.7947 20.8598 18.9784C21.1511 18.1621 21.1517 17.46 21.0649 17.3158C20.9781 17.1701 20.745 17.0833 20.3949 16.9083C20.0463 16.7333 18.3282 15.8896 18.0076 15.7734C17.687 15.6572 17.4524 15.5984 17.22 15.9484C16.9876 16.2985 16.3196 17.0833 16.1152 17.3157C15.9108 17.5496 15.7078 17.581 15.3577 17.406C15.0077 17.2296 13.8822 16.8596 12.5465 15.6695C11.5076 14.744 10.8066 13.6021 10.6022 13.2521C10.3992 12.9034 10.583 12.7119 10.7581 12.5383C10.9149 12.3815 11.1054 12.1302 11.2804 11.9257C11.454 11.7213 11.5142 11.5757 11.6304 11.3433C11.7466 11.1108 11.6871 10.9057 11.6003 10.7307C11.5135 10.5557 10.8337 8.82993 10.5229 8.13826C10.2611 7.55721 9.98452 7.54371 9.7353 7.53391C9.53228 7.52551 9.30049 7.52573 9.06807 7.52573Z" fill="#E8CFCF"/>
</svg>
